<svg xmlns="http://www.w3.org/2000/svg" viewBox="0 -101 586 137" width="586" height="137" role="img" aria-labelledby="title">
  <title id="title">LogicTrail</title>
  <path fill="#16171B" d="M0 -87.53 A8.47 8.47 0 0 1 16.94 -87.53 V-8.47 A8.47 8.47 0 0 1 0 -8.47 Z M8.47 -16.94 H45.18 A8.47 8.47 0 0 1 45.18 0 H8.47 A8.47 8.47 0 0 1 8.47 -16.94 Z M52.24 -35.29 A36 36 0 1 1 124.24 -35.29 A36 36 0 1 1 52.24 -35.29 Z M69.18 -35.29 A19.06 19.06 0 1 0 107.29 -35.29 A19.06 19.06 0 1 0 69.18 -35.29 Z M135.53 -35.29 A36 36 0 1 1 207.53 -35.29 A36 36 0 1 1 135.53 -35.29 Z M152.47 -35.29 A19.06 19.06 0 1 0 190.59 -35.29 A19.06 19.06 0 1 0 152.47 -35.29 Z M190.59 -62.12 A8.47 8.47 0 0 1 207.53 -62.12 V0 A8.47 8.47 0 0 1 190.59 0 Z M207.53 0 A36 36 0 0 1 141 19.08 A8.47 8.47 0 0 1 155.37 10.1 A19.06 19.06 0 0 0 190.59 0 A8.47 8.47 0 0 1 207.53 0 Z M221.65 -62.12 A8.47 8.47 0 0 1 238.59 -62.12 V-8.47 A8.47 8.47 0 0 1 221.65 -8.47 Z M219.61 -90.35 A10.5 10.5 0 1 1 240.62 -90.35 A10.5 10.5 0 1 1 219.61 -90.35 Z M314.05 -11.21 A36 36 0 1 1 314.05 -59.38 A8.47 8.47 0 0 1 301.46 -48.05 A19.06 19.06 0 1 0 301.46 -22.54 A8.47 8.47 0 0 1 314.05 -11.21 Z M324.69 -96 H383.99 A8.47 8.47 0 0 1 383.99 -79.06 H324.69 A8.47 8.47 0 0 1 324.69 -96 Z M345.87 -87.53 A8.47 8.47 0 0 1 362.81 -87.53 V-8.47 A8.47 8.47 0 0 1 345.87 -8.47 Z M391.05 -62.12 A8.47 8.47 0 0 1 407.99 -62.12 V-8.47 A8.47 8.47 0 0 1 391.05 -8.47 Z M391.05 -35.29 A35.29 35.29 0 0 1 426.34 -70.59 A8.47 8.47 0 0 1 426.34 -53.65 A18.35 18.35 0 0 0 407.99 -35.29 A8.47 8.47 0 0 1 391.05 -35.29 Z M426.34 -70.59 H430.58 A8.47 8.47 0 0 1 430.58 -53.65 H426.34 A8.47 8.47 0 0 1 426.34 -70.59 Z M446.11 -35.29 A36 36 0 1 1 518.11 -35.29 A36 36 0 1 1 446.11 -35.29 Z M463.05 -35.29 A19.06 19.06 0 1 0 501.16 -35.29 A19.06 19.06 0 1 0 463.05 -35.29 Z M501.16 -62.12 A8.47 8.47 0 0 1 518.11 -62.12 V-8.47 A8.47 8.47 0 0 1 501.16 -8.47 Z M533.63 -62.12 A8.47 8.47 0 0 1 550.58 -62.12 V-8.47 A8.47 8.47 0 0 1 533.63 -8.47 Z M531.6 -90.35 A10.5 10.5 0 1 1 552.61 -90.35 A10.5 10.5 0 1 1 531.6 -90.35 Z M568.93 -87.53 A8.47 8.47 0 0 1 585.87 -87.53 V-8.47 A8.47 8.47 0 0 1 568.93 -8.47 Z"/>
</svg>
